<?xml version="1.0" encoding="UTF-8"?>
<svg width="44px" height="37px" viewBox="0 0 44 37" preserveAspectRatio="none" version="1.1" xmlns="http://www.w3.org/2000/svg" xmlns:xlink="http://www.w3.org/1999/xlink">
    <!-- Generator: Sketch 60 (88103) - https://sketch.com -->
    <title>Bubble</title>
    <desc>Created with Sketch.</desc>
    <defs>
        <path d="M12,33 C5.372583,33 8.11624501e-16,27.627417 0,21 L0,12 C-8.11624501e-16,5.372583 5.372583,1.21743675e-15 12,0 L21,0 C27.627417,-1.21743675e-15 33,5.372583 33,12 L33,16 C33.1930031,18.8392983 33.8761979,21.7667487 35.0495842,24.7823513 C35.9539532,27.1065797 37.4958698,29.2666259 39.6753338,31.26249 C40.0826614,31.6354732 40.110477,32.2680413 39.7374769,32.6753536 C39.5480486,32.8822073 39.2804571,33 38.9999726,33 L12,33 Z" id="path-1"></path>
        <filter x="-8.8%" y="-7.6%" width="117.5%" height="121.2%" filterUnits="objectBoundingBox" id="filter-2">
            <feOffset dx="0" dy="1" in="SourceAlpha" result="shadowOffsetOuter1"></feOffset>
            <feGaussianBlur stdDeviation="1" in="shadowOffsetOuter1" result="shadowBlurOuter1"></feGaussianBlur>
            <feColorMatrix values="0 0 0 0 0.0621962482   0 0 0 0 0.138574144   0 0 0 0 0.185037364  0 0 0 0.15 0" type="matrix" in="shadowBlurOuter1"></feColorMatrix>
        </filter>
    </defs>
    <g id="Page-1" stroke="none" stroke-width="1" fill="none" fill-rule="evenodd">
        <g id="Out-/-Whole" transform="translate(2.000000, 1.000000)">
            <g id="Bubble">
                <use fill="black" fill-opacity="1" filter="url(#filter-2)" xlink:href="#path-1"></use>
                <use fill="#EEFFDE" fill-rule="evenodd" xlink:href="#path-1"></use>
            </g>
        </g>
    </g>
</svg>